<svg aria-hidden="true" xmlns="http://www.w3.org/2000/svg" viewBox="-2 -2 116 116" class="fxg-cube__icon" tabindex="-1" focusable="false"><g xmlns="http://www.w3.org/2000/svg" class="fxg-cube__icon-grey"><polyline points="21.66 38.56 21.66 22.12 66.28 1.12 110.81 22.12 110.81 64.14 66.28 85.15 52.06 78.16" fill="none" stroke="#333333" stroke-linecap="round" stroke-linejoin="round" stroke-width="3"/><line x1="66.28" y1="43.13" x2="21.66" y2="22.12" fill="none" stroke="#333333" stroke-linecap="round" stroke-linejoin="round" stroke-width="3"/><line x1="66.28" y1="43.13" x2="66.28" y2="85.15" fill="none" stroke="#333333" stroke-linecap="round" stroke-linejoin="round" stroke-width="3"/><line x1="110.81" y1="22.12" x2="66.28" y2="43.13" fill="none" stroke="#333333" stroke-linecap="round" stroke-linejoin="round" stroke-width="3"/><line x1="87.19" y1="11.02" x2="42.71" y2="32.03" fill="none" stroke="#333333" stroke-linecap="round" stroke-linejoin="round" stroke-width="3"/><path d="M1.86,43H47.14a.86.86,0,0,1,.86.86v66.28a.86.86,0,0,1-.86.86H1.86a.86.86,0,0,1-.86-.86V43.86A.86.86,0,0,1,1.86,43Z" fill="none" stroke="#333333" stroke-linecap="round" stroke-linejoin="round" stroke-width="3"/><rect x="7.01" y="49.02" width="34.98" height="18" fill="none" stroke="#333333" stroke-linecap="round" stroke-linejoin="round" stroke-width="3"/><line x1="7" y1="77" x2="12" y2="77" fill="none" stroke="#333333" stroke-linecap="round" stroke-linejoin="round" stroke-width="3"/><line x1="17" y1="77" x2="22" y2="77" fill="none" stroke="#333333" stroke-linecap="round" stroke-linejoin="round" stroke-width="3"/><line x1="27" y1="77" x2="32" y2="77" fill="none" stroke="#333333" stroke-linecap="round" stroke-linejoin="round" stroke-width="3"/><line x1="37" y1="77" x2="42" y2="77" fill="none" stroke="#333333" stroke-linecap="round" stroke-linejoin="round" stroke-width="3"/><line x1="7" y1="87" x2="12" y2="87" fill="none" stroke="#333333" stroke-linecap="round" stroke-linejoin="round" stroke-width="3"/><line x1="17" y1="87" x2="22" y2="87" fill="none" stroke="#333333" stroke-linecap="round" stroke-linejoin="round" stroke-width="3"/><line x1="27" y1="87" x2="32" y2="87" fill="none" stroke="#333333" stroke-linecap="round" stroke-linejoin="round" stroke-width="3"/><line x1="7" y1="97" x2="12" y2="97" fill="none" stroke="#333333" stroke-linecap="round" stroke-linejoin="round" stroke-width="3"/><line x1="17" y1="97" x2="22" y2="97" fill="none" stroke="#333333" stroke-linecap="round" stroke-linejoin="round" stroke-width="3"/><line x1="27" y1="97" x2="32" y2="97" fill="none" stroke="#333333" stroke-linecap="round" stroke-linejoin="round" stroke-width="3"/><line x1="40" y1="87" x2="40" y2="97" fill="none" stroke="#333333" stroke-linecap="round" stroke-linejoin="round" stroke-width="3"/></g><g xmlns="http://www.w3.org/2000/svg" class="fxg-cube__icon-white"><polyline points="21.66 38.56 21.66 22.12 66.28 1.12 110.81 22.12 110.81 64.14 66.28 85.15 52.06 78.16" fill="none" stroke="#ffffff" stroke-linecap="round" stroke-linejoin="round" stroke-width="3"/><line x1="66.28" y1="43.13" x2="21.66" y2="22.12" fill="none" stroke="#ffffff" stroke-linecap="round" stroke-linejoin="round" stroke-width="3"/><line x1="66.28" y1="43.13" x2="66.28" y2="85.15" fill="none" stroke="#ffffff" stroke-linecap="round" stroke-linejoin="round" stroke-width="3"/><line x1="110.81" y1="22.12" x2="66.28" y2="43.13" fill="none" stroke="#ffffff" stroke-linecap="round" stroke-linejoin="round" stroke-width="3"/><line x1="87.19" y1="11.02" x2="42.71" y2="32.03" fill="none" stroke="#ffffff" stroke-linecap="round" stroke-linejoin="round" stroke-width="3"/><path d="M1.86,43H47.14a.86.86,0,0,1,.86.86v66.28a.86.86,0,0,1-.86.86H1.86a.86.86,0,0,1-.86-.86V43.86A.86.86,0,0,1,1.86,43Z" fill="none" stroke="#ffffff" stroke-linecap="round" stroke-linejoin="round" stroke-width="3"/><rect x="7.01" y="49.02" width="34.98" height="18" fill="none" stroke="#ffffff" stroke-linecap="round" stroke-linejoin="round" stroke-width="3"/><line x1="7" y1="77" x2="12" y2="77" fill="none" stroke="#ffffff" stroke-linecap="round" stroke-linejoin="round" stroke-width="3"/><line x1="17" y1="77" x2="22" y2="77" fill="none" stroke="#ffffff" stroke-linecap="round" stroke-linejoin="round" stroke-width="3"/><line x1="27" y1="77" x2="32" y2="77" fill="none" stroke="#ffffff" stroke-linecap="round" stroke-linejoin="round" stroke-width="3"/><line x1="37" y1="77" x2="42" y2="77" fill="none" stroke="#ffffff" stroke-linecap="round" stroke-linejoin="round" stroke-width="3"/><line x1="7" y1="87" x2="12" y2="87" fill="none" stroke="#ffffff" stroke-linecap="round" stroke-linejoin="round" stroke-width="3"/><line x1="17" y1="87" x2="22" y2="87" fill="none" stroke="#ffffff" stroke-linecap="round" stroke-linejoin="round" stroke-width="3"/><line x1="27" y1="87" x2="32" y2="87" fill="none" stroke="#ffffff" stroke-linecap="round" stroke-linejoin="round" stroke-width="3"/><line x1="7" y1="97" x2="12" y2="97" fill="none" stroke="#ffffff" stroke-linecap="round" stroke-linejoin="round" stroke-width="3"/><line x1="17" y1="97" x2="22" y2="97" fill="none" stroke="#ffffff" stroke-linecap="round" stroke-linejoin="round" stroke-width="3"/><line x1="27" y1="97" x2="32" y2="97" fill="none" stroke="#ffffff" stroke-linecap="round" stroke-linejoin="round" stroke-width="3"/><line x1="40" y1="87" x2="40" y2="97" fill="none" stroke="#ffffff" stroke-linecap="round" stroke-linejoin="round" stroke-width="3"/></g></svg>