<svg id="Layer_1" data-name="Layer 1" xmlns="http://www.w3.org/2000/svg" xmlns:xlink="http://www.w3.org/1999/xlink" viewBox="0 0 31 31"><defs><style>.cls-1,.cls-4{fill:#fff;}.cls-1,.cls-3,.cls-4,.cls-5{fill-rule:evenodd;}.cls-2{mask:url(#mask);}.cls-3{fill:#0e5998;}.cls-4{stroke:#e3e3e3;}.cls-5{fill:#2ea8e0;}</style><mask id="mask" x="11.38" y="9.37" width="7.15" height="12.52" maskUnits="userSpaceOnUse"><g transform="translate(-0.5 -0.5)"><g id="mask-10"><polygon id="path-9" class="cls-1" points="15.45 22.4 19.03 22.4 19.03 9.87 15.45 9.87 11.88 9.87 11.88 22.4 15.45 22.4"/></g></g></mask></defs><title>fx_twitter</title><g class="cls-2"><path class="cls-3" d="M13.74,22.4V16.32H11.88V14h1.86l.06-2.2a2,2,0,0,1,2.28-1.94H19v2.44H16.63v1.81H19v2.15H16.69V22.4Z" transform="translate(-0.5 -0.5)"/></g><path class="cls-4" d="M1,16A15,15,0,1,1,16,31,15,15,0,0,1,1,16Z" transform="translate(-0.5 -0.5)"/><path class="cls-5" d="M23.62,11.24a6,6,0,0,1-1.8.49A3.15,3.15,0,0,0,23.2,10a6.59,6.59,0,0,1-2,.77,3.08,3.08,0,0,0-2.28-1,3.14,3.14,0,0,0-3.13,3.15,2.84,2.84,0,0,0,.09.72,8.87,8.87,0,0,1-6.45-3.29A3.11,3.11,0,0,0,9,11.92a3.15,3.15,0,0,0,1.39,2.62A3.14,3.14,0,0,1,9,14.15v0a3.16,3.16,0,0,0,2.51,3.09,3.18,3.18,0,0,1-.82.11,2.88,2.88,0,0,1-.59-.06A3.14,3.14,0,0,0,13,19.52a6.15,6.15,0,0,1-4.63,1.3,8.77,8.77,0,0,0,4.79,1.42,8.87,8.87,0,0,0,8.9-9c0-.14,0-.28,0-.41a6.53,6.53,0,0,0,1.56-1.63" transform="translate(-0.5 -0.5)"/></svg>