<svg id="Layer_1" data-name="Layer 1" xmlns="http://www.w3.org/2000/svg" xmlns:xlink="http://www.w3.org/1999/xlink" viewBox="0 0 31 31"><defs><style>.cls-1,.cls-4{fill:#fff;}.cls-1,.cls-3,.cls-4,.cls-5{fill-rule:evenodd;}.cls-2{mask:url(#mask);}.cls-3{fill:#0e5998;}.cls-4{stroke:#e3e3e3;}.cls-5{fill:#077bb8;}</style><mask id="mask" x="11.38" y="9.37" width="7.15" height="12.52" maskUnits="userSpaceOnUse"><g transform="translate(-0.5 -0.5)"><g id="mask-10"><polygon id="path-9" class="cls-1" points="15.45 22.4 19.03 22.4 19.03 9.87 15.45 9.87 11.88 9.87 11.88 22.4 15.45 22.4"/></g></g></mask></defs><title>fx_linkedin</title><g class="cls-2"><path class="cls-3" d="M13.74,22.4V16.32H11.88V14h1.86l.06-2.2a2,2,0,0,1,2.28-1.94H19v2.44H16.63v1.81H19v2.15H16.69V22.4Z" transform="translate(-0.5 -0.5)"/></g><path class="cls-4" d="M1,16A15,15,0,1,1,16,31,15,15,0,0,1,1,16Z" transform="translate(-0.5 -0.5)"/><g id="Page-1"><polygon id="Fill-1" class="cls-5" points="9.37 21.79 12.61 21.79 12.61 13.69 9.37 13.69 9.37 21.79"/><g id="Group-7"><g id="Group-4"><path id="Fill-2" class="cls-5" d="M11.49,13a1.64,1.64,0,1,0-1.62-1.63A1.63,1.63,0,0,0,11.49,13" transform="translate(-0.5 -0.5)"/></g><path id="Fill-5" class="cls-5" d="M14.37,14.21v8.08h2.72V17.62c0-1.55,2.45-1.4,2.58,0v4.67h2.46V16c-.5-2.52-4.42-2.43-5.24-1.05v-.75Z" transform="translate(-0.5 -0.5)"/></g></g></svg>