<svg id="Layer_1" data-name="Layer 1" xmlns="http://www.w3.org/2000/svg" xmlns:xlink="http://www.w3.org/1999/xlink" viewBox="0 0 31 31"><defs><style>.cls-1,.cls-2{fill:#fff;}.cls-1,.cls-2,.cls-4{fill-rule:evenodd;}.cls-2{stroke:#e3e3e3;}.cls-3{mask:url(#mask);}.cls-4{fill:#bd2026;}</style><mask id="mask" x="10.58" y="9.24" width="9.84" height="12.53" maskUnits="userSpaceOnUse"><g transform="translate(-0.5 -0.5)"><g id="mask-4"><polygon id="path-3" class="cls-1" points="11.08 9.74 20.92 9.74 20.92 22.26 11.08 22.26 11.08 9.74"/></g></g></mask></defs><title>fx_pinterest</title><path class="cls-2" d="M1,16A15,15,0,1,1,16,31,15,15,0,0,1,1,16Z" transform="translate(-0.5 -0.5)"/><g class="cls-3"><path class="cls-4" d="M20.92,13.86c0,2.82-1.58,4.93-3.93,4.93a2.12,2.12,0,0,1-1.8-.9s-.42,1.66-.51,2a7.57,7.57,0,0,1-1.31,2.34.1.1,0,0,1-.18,0,7.79,7.79,0,0,1,0-2.74c.13-.59.92-3.92.92-3.92a2.87,2.87,0,0,1-.22-1.14c0-1.07.63-1.87,1.41-1.87a1,1,0,0,1,1,1.09,14.34,14.34,0,0,1-.64,2.55,1.12,1.12,0,0,0,1.15,1.39c1.38,0,2.32-1.76,2.32-3.83a2.72,2.72,0,0,0-3-2.76,3.44,3.44,0,0,0-3.6,3.45A2.06,2.06,0,0,0,13,15.82c.13.17.16.22.1.4a5.47,5.47,0,0,1-.15.58.25.25,0,0,1-.36.19,2.79,2.79,0,0,1-1.49-2.76c0-2.05,1.75-4.49,5.22-4.49a4.34,4.34,0,0,1,4.62,4.12" transform="translate(-0.5 -0.5)"/></g></svg>