<svg aria-hidden="true" xmlns="http://www.w3.org/2000/svg" viewBox="-2 -2 116 116" class="fxg-cube__icon" tabindex="-1" focusable="false"><g xmlns="http://www.w3.org/2000/svg" class="fxg-cube__icon-grey"><line x1="45.43" y1="49.83" x2="1" y2="28.5" fill="none" stroke="#333333" stroke-miterlimit="10" stroke-width="3" class="smallstroke"/><line x1="45.43" y1="49.83" x2="45.43" y2="91.39" fill="none" stroke="#333333" stroke-miterlimit="10" stroke-width="3" class="smallstroke"/><line x1="89.69" y1="28.5" x2="45.43" y2="49.83" fill="none" stroke="#333333" stroke-miterlimit="10" stroke-width="3" class="smallstroke"/><line x1="66.19" y1="17.22" x2="21.93" y2="38.55" fill="none" stroke="#333333" stroke-miterlimit="10" stroke-width="3" class="smallstroke"/><polyline points="89.69 47.24 89.69 28.5 45.39 7.17 1 28.5 1 71.16 45.39 92.49 57.9 86.47" fill="none" stroke="#333333" stroke-miterlimit="10" stroke-width="3" class="smallstroke"/><path d="M87.24,53.76a19.74,19.74,0,0,1,0,27.12,17.9,17.9,0,0,1-26,0,19.74,19.74,0,0,1,0-27.12A17.9,17.9,0,0,1,87.24,53.76Z" fill="none" stroke="#333333" stroke-miterlimit="10" stroke-width="3" class="smallstroke"/><polyline points="90.83 77.86 110.61 98.47 104.83 104.5 85.04 83.89" fill="none" stroke="#333333" stroke-miterlimit="10" stroke-width="3" class="smallstroke"/></g><g xmlns="http://www.w3.org/2000/svg" class="fxg-cube__icon-white"><line x1="45.43" y1="49.83" x2="1" y2="28.5" fill="none" stroke="#ffffff" stroke-miterlimit="10" stroke-width="3" class="smallstroke"/><line x1="45.43" y1="49.83" x2="45.43" y2="91.39" fill="none" stroke="#ffffff" stroke-miterlimit="10" stroke-width="3" class="smallstroke"/><line x1="89.69" y1="28.5" x2="45.43" y2="49.83" fill="none" stroke="#ffffff" stroke-miterlimit="10" stroke-width="3" class="smallstroke"/><line x1="66.19" y1="17.22" x2="21.93" y2="38.55" fill="none" stroke="#ffffff" stroke-miterlimit="10" stroke-width="3" class="smallstroke"/><polyline points="89.69 47.24 89.69 28.5 45.39 7.17 1 28.5 1 71.16 45.39 92.49 57.9 86.47" fill="none" stroke="#ffffff" stroke-miterlimit="10" stroke-width="3" class="smallstroke"/><path d="M87.24,53.76a19.74,19.74,0,0,1,0,27.12,17.9,17.9,0,0,1-26,0,19.74,19.74,0,0,1,0-27.12A17.9,17.9,0,0,1,87.24,53.76Z" fill="none" stroke="#ffffff" stroke-miterlimit="10" stroke-width="3" class="smallstroke"/><polyline points="90.83 77.86 110.61 98.47 104.83 104.5 85.04 83.89" fill="none" stroke="#ffffff" stroke-miterlimit="10" stroke-width="3" class="smallstroke"/></g></svg>