<svg id="Layer_1" data-name="Layer 1" xmlns="http://www.w3.org/2000/svg" xmlns:xlink="http://www.w3.org/1999/xlink" viewBox="0 0 31 31"><defs><style>.cls-1{fill:#fff;stroke:#e3e3e3;fill-rule:evenodd;}.cls-2{fill:url(#linear-gradient);}.cls-3{fill:url(#linear-gradient-3);}</style><linearGradient id="linear-gradient" x1="15.5" y1="-500.29" x2="15.5" y2="-512.65" gradientTransform="translate(0 522)" gradientUnits="userSpaceOnUse"><stop offset="0" stop-color="#e09b3d"/><stop offset="0.3" stop-color="#c74c4d"/><stop offset="0.6" stop-color="#c21975"/><stop offset="1" stop-color="#7024c4"/></linearGradient><linearGradient id="linear-gradient-3" x1="18.74" y1="-500.29" x2="18.74" y2="-512.65" xlink:href="#linear-gradient"/></defs><title>fx_instagram</title><path class="cls-1" d="M.5,15.5a15,15,0,1,1,15,15A15,15,0,0,1,.5,15.5Z"/><path class="cls-2" d="M18,9.26H13A3.71,3.71,0,0,0,9.26,13v5A3.71,3.71,0,0,0,13,21.74h5A3.71,3.71,0,0,0,21.74,18V13A3.71,3.71,0,0,0,18,9.26ZM20.49,18A2.48,2.48,0,0,1,18,20.49H13A2.48,2.48,0,0,1,10.51,18V13A2.48,2.48,0,0,1,13,10.51h5A2.48,2.48,0,0,1,20.49,13v5Z"/><path class="cls-2" d="M15.5,12.27a3.23,3.23,0,1,0,3.23,3.23A3.23,3.23,0,0,0,15.5,12.27Zm0,5.2a2,2,0,1,1,2-2A2,2,0,0,1,15.5,17.47Z"/><circle class="cls-3" cx="18.74" cy="12.29" r="0.77"/></svg>