<svg id="Layer_1" data-name="Layer 1" xmlns="http://www.w3.org/2000/svg" xmlns:xlink="http://www.w3.org/1999/xlink" viewBox="0 0 31 31"><defs><style>.cls-1,.cls-2{fill:#fff;}.cls-1,.cls-2,.cls-4{fill-rule:evenodd;}.cls-2{stroke:#e3e3e3;}.cls-3{mask:url(#mask);}.cls-4{fill:#595a5c;}</style><mask id="mask" x="7.68" y="10.12" width="15.65" height="10.76" maskUnits="userSpaceOnUse"><g transform="translate(-0.5 -0.5)"><g id="mask-8"><polygon id="path-7" class="cls-1" points="8.18 10.62 23.82 10.62 23.82 21.38 8.18 21.38 8.18 10.62"/></g></g></mask></defs><title>fx_email</title><path class="cls-2" d="M1,16A15,15,0,1,1,16,31,15,15,0,0,1,1,16Z" transform="translate(-0.5 -0.5)"/><g id="Page-1-Copy-2"><g class="cls-3"><path class="cls-4" d="M22.71,14.29a4.92,4.92,0,0,1-.61.5c-1.24.84-2.5,1.7-3.71,2.59A4.3,4.3,0,0,1,16,18.45h0a4.3,4.3,0,0,1-2.38-1.07c-1.21-.89-2.47-1.75-3.71-2.59a4.92,4.92,0,0,1-.61-.5v5.87a.27.27,0,0,0,.28.24H22.43a.27.27,0,0,0,.28-.24Zm-.28-2.69H9.57a.27.27,0,0,0-.28.24A2.66,2.66,0,0,0,10.58,14l3.5,2.43c.46.32,1.3,1,1.91,1h0c.61,0,1.45-.71,1.91-1L21.42,14a2.92,2.92,0,0,0,1.29-1.88c0-.2.05-.53-.28-.53Zm1.39,8.56a1.31,1.31,0,0,1-1.39,1.22H9.57a1.31,1.31,0,0,1-1.39-1.22V11.84a1.31,1.31,0,0,1,1.39-1.22H22.43a1.31,1.31,0,0,1,1.39,1.22Z" transform="translate(-0.5 -0.5)"/></g></g></svg>