<svg id="Layer_1" data-name="Layer 1" xmlns="http://www.w3.org/2000/svg" xmlns:xlink="http://www.w3.org/1999/xlink" viewBox="0 0 31 31"><defs><style>.cls-1,.cls-2{fill:#fff;}.cls-1,.cls-2,.cls-3,.cls-5{fill-rule:evenodd;}.cls-2{stroke:#e3e3e3;}.cls-3{fill:#eb2227;}.cls-4{mask:url(#mask);}.cls-5{fill:#231f20;}</style><mask id="mask" x="11.97" y="9.55" width="2.45" height="4.59" maskUnits="userSpaceOnUse"><g transform="translate(-0.5 -0.5)"><g id="mask-2"><polygon id="path-1" class="cls-1" points="14.92 10.05 12.47 10.05 12.47 14.65 14.92 14.65 14.92 10.05"/></g></g></mask></defs><title>fx_youtube</title><path class="cls-2" d="M1,16A15,15,0,1,1,16,31,15,15,0,0,1,1,16Z" transform="translate(-0.5 -0.5)"/><path class="cls-3" d="M22.29,20.54a1.66,1.66,0,0,1-1.62,1.7H11.31a1.66,1.66,0,0,1-1.61-1.7V17a1.66,1.66,0,0,1,1.61-1.7h9.36A1.66,1.66,0,0,1,22.29,17Z" transform="translate(-0.5 -0.5)"/><g id="Group-5"><g class="cls-4"><path id="Fill-3" class="cls-5" d="M14.92,10.05l-.57,1.85-.28.93v1.82H13.2V12.87a6.86,6.86,0,0,0-.23-1c-.11-.4-.28-1-.5-1.86h.83l.4,1.63.44-1.63Z" transform="translate(-0.5 -0.5)"/></g></g><path id="Fill-6" class="cls-5" d="M16.24,13.94V11.66c0-.12,0-.18-.14-.18s-.14.06-.14.18v2.28c0,.12.05.19.14.19s.14-.07.14-.19m-1.07,0V11.69c0-.53.32-.79.94-.79a1.17,1.17,0,0,1,.64.18.66.66,0,0,1,.27.57v2.29c0,.51-.3.76-.91.76s-.94-.26-.94-.79" transform="translate(-0.5 -0.5)"/><path id="Fill-8" class="cls-5" d="M19.19,14.65H18.4v-.13a.59.59,0,0,1-.48.18.61.61,0,0,1-.41-.15.45.45,0,0,1-.17-.37V10.93h.79v3c0,.11,0,.17.14.17s.13,0,.13-.16v-3h.79Z" transform="translate(-0.5 -0.5)"/><polygon id="Fill-10" class="cls-1" points="12.89 16.5 12.36 16.5 12.36 20.49 11.42 20.49 11.42 16.5 10.89 16.5 10.89 15.9 12.89 15.9 12.89 16.5"/><path id="Fill-12" class="cls-1" d="M15.73,21h-.85v-.13a.67.67,0,0,1-.52.18.72.72,0,0,1-.44-.14.46.46,0,0,1-.18-.38V17.27h.85v3c0,.12.05.17.15.17s.14-.05.14-.16v-3h.85Z" transform="translate(-0.5 -0.5)"/><path id="Fill-14" class="cls-1" d="M17.24,20.29V18c0-.11,0-.16-.15-.16S17,17.88,17,18v2.3c0,.12.05.17.14.17s.15-.05.15-.17m-.43.57-.07.13H16.1V16.4H17v1a.77.77,0,0,1,.52-.14.73.73,0,0,1,.43.13.44.44,0,0,1,.19.38v2.67a.5.5,0,0,1-.23.44.92.92,0,0,1-.55.17.83.83,0,0,1-.5-.18" transform="translate(-0.5 -0.5)"/><path id="Fill-16" class="cls-1" d="M19.6,18.86V18c0-.12,0-.18-.14-.18s-.15.06-.15.18v.85Zm.85.55H19.31v.87c0,.13.05.19.15.19s.14-.06.14-.19v-.75h.85v.76c0,.5-.33.75-1,.75s-1-.26-1-.79V18q0-.78,1-.78c.67,0,1,.25,1,.75Z" transform="translate(-0.5 -0.5)"/></svg>