<svg id="Layer_1" data-name="Layer 1" xmlns="http://www.w3.org/2000/svg" xmlns:xlink="http://www.w3.org/1999/xlink" viewBox="0 0 31 31"><defs><style>.cls-1,.cls-2{fill:#fff;}.cls-1,.cls-2,.cls-4{fill-rule:evenodd;}.cls-2{stroke:#e3e3e3;}.cls-3{mask:url(#mask);}.cls-4{fill:#0e5998;}</style><mask id="mask" x="11.38" y="9.37" width="7.15" height="12.52" maskUnits="userSpaceOnUse"><g transform="translate(-0.5 -0.5)"><g id="mask-10"><polygon id="path-9" class="cls-1" points="15.45 22.4 19.03 22.4 19.03 9.87 15.45 9.87 11.88 9.87 11.88 22.4 15.45 22.4"/></g></g></mask></defs><title>fx_facebook</title><path class="cls-2" d="M1,16A15,15,0,1,1,16,31,15,15,0,0,1,1,16Z" transform="translate(-0.5 -0.5)"/><g class="cls-3"><path class="cls-4" d="M13.74,22.4V16.32H11.88V14h1.86l.06-2.2a2,2,0,0,1,2.28-1.94H19v2.44H16.63v1.81H19v2.15H16.69V22.4Z" transform="translate(-0.5 -0.5)"/></g></svg>